<?xml version="1.0" standalone="no"?>
<!DOCTYPE svg PUBLIC "-//W3C//DTD SVG 20010904//EN"
 "http://www.w3.org/TR/2001/REC-SVG-20010904/DTD/svg10.dtd">
<svg version="1.0" xmlns="http://www.w3.org/2000/svg"
 width="260.000000pt" height="260.000000pt" viewBox="0 0 260.000000 260.000000"
 preserveAspectRatio="xMidYMid meet">
<metadata>
Created by potrace 1.11, written by Peter Selinger 2001-2013
</metadata>
<g transform="translate(0.000000,260.000000) scale(0.100000,-0.100000)"
fill="#000000" stroke="none">
<path d="M665 2522 c-11 -2 -42 -11 -70 -20 -27 -9 -52 -17 -55 -17 -74 -19
-213 -128 -273 -215 -38 -55 -82 -145 -93 -191 -4 -19 -9 -41 -12 -49 -8 -31
-14 -170 -8 -170 4 0 27 20 51 45 30 32 44 56 48 83 6 50 14 82 28 112 56 120
103 179 189 238 33 23 63 42 66 42 3 0 25 9 50 21 25 11 68 23 96 26 42 5 57
13 94 49 24 24 44 46 44 50 0 5 -117 3 -155 -4z"/>
<path d="M699 2392 c-93 -22 -119 -33 -189 -80 -104 -69 -192 -195 -220 -317
-14 -58 -21 -165 -11 -165 18 0 78 78 79 103 5 77 94 237 158 283 15 11 31 24
38 30 32 30 168 78 213 75 9 0 83 70 83 79 0 11 -94 6 -151 -8z"/>
<path d="M777 2273 c-1 -1 -21 -4 -44 -8 -41 -6 -133 -41 -143 -54 -3 -4 -22
-20 -42 -35 -35 -26 -108 -123 -112 -149 -1 -7 -4 -17 -8 -22 -14 -23 -28
-139 -18 -155 10 -16 60 46 60 75 0 13 5 27 10 30 6 4 8 11 5 16 -11 17 48
110 98 154 46 42 136 85 177 85 17 0 80 49 80 62 0 3 -59 5 -63 1z"/>
<path d="M618 2061 c-1 -3 -2 -349 -3 -767 l-2 -761 151 0 151 1 5 320 5 321
65 -1 c91 -2 131 -9 172 -28 66 -32 99 -74 312 -392 l148 -221 176 0 c171 -1
204 2 185 16 -12 9 -193 301 -193 312 0 5 -4 9 -8 9 -5 0 -15 12 -23 27 -8 15
-19 35 -26 43 -7 8 -32 42 -56 75 -51 68 -128 143 -169 164 -29 15 -38 38 -15
38 23 0 131 35 169 54 35 18 147 119 132 119 -4 0 0 8 10 19 49 54 76 235 50
334 -32 122 -107 220 -201 264 -50 23 -68 29 -123 39 -14 2 -41 7 -60 11 -44
8 -849 12 -852 4z m797 -265 c83 -19 134 -92 132 -186 -3 -77 -32 -129 -89
-158 -55 -28 -117 -35 -353 -36 l-180 -1 -3 197 -2 196 232 -2 c128 -2 247 -6
263 -10z"/>
<path d="M2278 722 c-20 -21 -39 -48 -41 -62 -14 -78 -48 -167 -80 -208 -35
-44 -117 -121 -135 -126 -12 -4 -22 -11 -22 -15 0 -4 -6 -8 -12 -9 -7 0 -31
-7 -53 -15 -22 -8 -58 -18 -79 -21 -35 -6 -113 -59 -115 -78 -2 -17 152 -9
181 9 5 2 17 6 28 8 57 11 172 84 228 145 41 44 78 104 102 165 26 64 29 74
33 117 2 15 6 30 9 33 4 4 0 87 -5 92 -1 0 -19 -15 -39 -35z"/>
<path d="M2153 716 c-13 -13 -25 -34 -27 -47 -3 -13 -5 -26 -6 -29 -1 -3 -3
-9 -5 -15 -1 -5 -3 -12 -4 -15 -2 -3 -4 -13 -6 -23 -5 -27 -49 -90 -86 -125
-40 -37 -120 -78 -173 -87 -22 -5 -52 -21 -69 -36 l-30 -29 44 0 c44 0 123 18
169 39 86 38 173 135 204 226 20 59 33 165 20 165 -5 0 -19 -11 -31 -24z"/>
<path d="M2395 684 c-41 -46 -59 -80 -51 -100 3 -7 2 -15 -2 -18 -3 -4 -7 -13
-8 -21 -3 -20 -37 -109 -44 -115 -3 -3 -12 -18 -20 -34 -38 -73 -162 -176
-255 -211 -55 -21 -54 -21 -110 -30 -41 -7 -74 -30 -113 -77 l-23 -28 73 5
c40 3 80 6 88 8 65 14 91 22 135 40 28 12 52 23 55 26 3 4 17 12 32 20 15 8
37 22 47 33 11 10 25 18 31 18 6 0 9 4 6 8 -2 4 8 16 24 27 15 10 35 31 44 47
9 15 23 33 30 41 19 18 60 101 79 158 22 66 42 235 28 243 -3 2 -24 -16 -46
-40z"/>
</g>
</svg>
